<svg id="visual" viewBox="0 0 1920 1080" width="1920" height="1080" xmlns="http://www.w3.org/2000/svg" xmlns:xlink="http://www.w3.org/1999/xlink" version="1.1"><rect x="0" y="0" width="1920" height="1080" fill="#002233"></rect><path d="M0 938L16.8 920.2C33.7 902.3 67.3 866.7 101 862.2C134.7 857.7 168.3 884.3 202 903.7C235.7 923 269.3 935 303 928.5C336.7 922 370.3 897 404 873.7C437.7 850.3 471.3 828.7 505 829.2C538.7 829.7 572.3 852.3 606 863.3C639.7 874.3 673.3 873.7 707 878.3C740.7 883 774.3 893 808 903C841.7 913 875.3 923 909.2 905C943 887 977 841 1010.8 837C1044.7 833 1078.3 871 1112 878C1145.7 885 1179.3 861 1213 841.2C1246.7 821.3 1280.3 805.7 1314 817.8C1347.7 830 1381.3 870 1415 869.3C1448.7 868.7 1482.3 827.3 1516 807C1549.7 786.7 1583.3 787.3 1617 808.3C1650.7 829.3 1684.3 870.7 1718 875C1751.7 879.3 1785.3 846.7 1819 840.8C1852.7 835 1886.3 856 1903.2 866.5L1920 877L1920 1081L1903.2 1081C1886.3 1081 1852.7 1081 1819 1081C1785.3 1081 1751.7 1081 1718 1081C1684.3 1081 1650.7 1081 1617 1081C1583.3 1081 1549.7 1081 1516 1081C1482.3 1081 1448.7 1081 1415 1081C1381.3 1081 1347.7 1081 1314 1081C1280.3 1081 1246.7 1081 1213 1081C1179.3 1081 1145.7 1081 1112 1081C1078.3 1081 1044.7 1081 1010.8 1081C977 1081 943 1081 909.2 1081C875.3 1081 841.7 1081 808 1081C774.3 1081 740.7 1081 707 1081C673.3 1081 639.7 1081 606 1081C572.3 1081 538.7 1081 505 1081C471.3 1081 437.7 1081 404 1081C370.3 1081 336.7 1081 303 1081C269.3 1081 235.7 1081 202 1081C168.3 1081 134.7 1081 101 1081C67.3 1081 33.7 1081 16.8 1081L0 1081Z" fill="#0066FF" stroke-linecap="round" stroke-linejoin="miter"></path></svg>